%TF.GenerationSoftware,KiCad,Pcbnew,7.0.11+dfsg-1build4*%
%TF.CreationDate,2025-03-10T12:53:19+05:30*%
%TF.ProjectId,incubator,696e6375-6261-4746-9f72-2e6b69636164,rev?*%
%TF.SameCoordinates,Original*%
%TF.FileFunction,Plated,1,2,PTH,Drill*%
%TF.FilePolarity,Positive*%
%FSLAX46Y46*%
G04 Gerber Fmt 4.6, Leading zero omitted, Abs format (unit mm)*
G04 Created by KiCad (PCBNEW 7.0.11+dfsg-1build4) date 2025-03-10 12:53:19*
%MOMM*%
%LPD*%
G01*
G04 APERTURE LIST*
%TA.AperFunction,ViaDrill*%
%ADD10C,0.300000*%
%TD*%
%TA.AperFunction,ComponentDrill*%
%ADD11C,0.700000*%
%TD*%
%TA.AperFunction,ComponentDrill*%
%ADD12C,0.800000*%
%TD*%
%TA.AperFunction,ComponentDrill*%
%ADD13C,0.900000*%
%TD*%
%TA.AperFunction,ComponentDrill*%
%ADD14C,1.000000*%
%TD*%
%TA.AperFunction,ComponentDrill*%
%ADD15C,1.020000*%
%TD*%
%TA.AperFunction,ComponentDrill*%
%ADD16C,1.100000*%
%TD*%
%TA.AperFunction,ComponentDrill*%
%ADD17C,1.200000*%
%TD*%
%TA.AperFunction,ComponentDrill*%
%ADD18C,1.400000*%
%TD*%
%TA.AperFunction,ComponentDrill*%
%ADD19C,1.500000*%
%TD*%
G04 APERTURE END LIST*
D10*
X33600000Y-62250000D03*
X34100000Y-138175000D03*
X34175000Y-145575000D03*
X34325000Y-102075000D03*
X34525000Y-153375000D03*
X34525000Y-161025000D03*
X35100000Y-168975000D03*
X37775000Y-32650000D03*
X39700000Y-110050000D03*
X41725000Y-74275000D03*
X46722453Y-102899651D03*
X47550000Y-138175000D03*
X47575000Y-17875000D03*
X47625000Y-145575000D03*
X47975000Y-153375000D03*
X47975000Y-161025000D03*
X48550000Y-168975000D03*
X49100000Y-62725000D03*
X51725000Y-93250000D03*
X56225000Y-175875000D03*
X56600000Y-182075000D03*
X63182373Y-33609439D03*
X70425000Y-182425000D03*
X70775000Y-175875000D03*
X79350000Y-78700000D03*
X79350000Y-96825000D03*
X83539979Y-175995636D03*
X83900000Y-182425000D03*
X86675000Y-21200000D03*
X89600000Y-141475000D03*
X90150000Y-61625000D03*
X94725000Y-134200000D03*
X94875000Y-175875000D03*
X95225000Y-182425000D03*
X100325000Y-141100000D03*
X107025000Y-175650000D03*
X107300000Y-182350000D03*
X109925000Y-85125000D03*
X114075000Y-68200000D03*
X115575000Y-175625000D03*
X115850000Y-182150000D03*
X116075000Y-135750000D03*
X118025000Y-91800000D03*
X118625000Y-75250000D03*
X122625000Y-145625000D03*
X123775000Y-16825000D03*
X126950000Y-180425000D03*
X128575000Y-135850000D03*
X129225000Y-58775000D03*
X134175000Y-128575000D03*
X135000000Y-17175000D03*
X135000000Y-31125000D03*
X135250000Y-142775000D03*
X138750000Y-180225000D03*
X148825000Y-143200000D03*
X153000000Y-70550000D03*
X155775000Y-179725000D03*
X157350000Y-152700000D03*
X157900000Y-124850000D03*
X162300000Y-19075000D03*
X162500000Y-143350000D03*
X162500000Y-161650000D03*
X168900000Y-110950000D03*
X170400000Y-31350000D03*
X171200000Y-152625000D03*
X171825000Y-180475000D03*
X175200000Y-99775000D03*
X178175000Y-125025000D03*
X178900000Y-143850000D03*
X188850000Y-122500000D03*
X190350000Y-151900000D03*
X197450000Y-28300000D03*
X201450000Y-18750000D03*
X208750000Y-31200000D03*
X209925000Y-158350000D03*
X220125000Y-30450000D03*
X222750000Y-158550000D03*
X223550000Y-140475000D03*
X223725000Y-124725000D03*
X223925000Y-67275000D03*
X224075000Y-108450000D03*
X224475000Y-87025000D03*
D11*
%TO.C,TP8*%
X47200000Y-119250000D03*
%TO.C,TP5*%
X47800000Y-84025000D03*
%TO.C,TP9*%
X101750000Y-130975000D03*
%TO.C,*%
X115130000Y-127550000D03*
%TO.C,scl*%
X120234000Y-127360000D03*
%TO.C,TP13*%
X135700000Y-23150000D03*
%TO.C,TP7*%
X136850000Y-41775000D03*
%TO.C,TP4*%
X145350000Y-28925000D03*
%TO.C,TP14*%
X150975000Y-28800000D03*
%TO.C,TP6*%
X152875000Y-94900000D03*
%TO.C,TP11*%
X163525000Y-173900000D03*
%TO.C,TP3*%
X169501000Y-82873000D03*
%TO.C,TP10*%
X200700000Y-155825000D03*
%TO.C,*%
X202100000Y-121325000D03*
D12*
%TO.C,C3*%
X157300000Y-68300000D03*
X159800000Y-68300000D03*
%TO.C,C1*%
X164825888Y-68023000D03*
X167325888Y-68023000D03*
D13*
%TO.C,D1*%
X169125000Y-75725000D03*
X171665000Y-75725000D03*
D14*
%TO.C,U7*%
X36729000Y-43045500D03*
X36729000Y-45585500D03*
X36729000Y-48125500D03*
X36729000Y-50665500D03*
%TO.C,U9*%
X63638000Y-88120000D03*
%TO.C,U11*%
X63963000Y-126245000D03*
%TO.C,U12*%
X64463000Y-163595000D03*
%TO.C,U9*%
X66178000Y-88120000D03*
%TO.C,U11*%
X66503000Y-126245000D03*
%TO.C,U12*%
X67003000Y-163595000D03*
%TO.C,U9*%
X68718000Y-88120000D03*
%TO.C,U11*%
X69043000Y-126245000D03*
%TO.C,U12*%
X69543000Y-163595000D03*
%TO.C,U9*%
X71258000Y-88120000D03*
%TO.C,U11*%
X71583000Y-126245000D03*
%TO.C,U12*%
X72083000Y-163595000D03*
%TO.C,U8*%
X74485000Y-42990000D03*
X74485000Y-45530000D03*
X74485000Y-48070000D03*
X74485000Y-50610000D03*
%TO.C,U4*%
X108515000Y-156240000D03*
X108515000Y-158780000D03*
X108515000Y-161320000D03*
X108515000Y-163860000D03*
%TO.C,U5*%
X111004000Y-42995500D03*
X111004000Y-45535500D03*
X111004000Y-48075500D03*
X111004000Y-50615500D03*
%TO.C,U6*%
X146479000Y-43070500D03*
X146479000Y-45610500D03*
X146479000Y-48150500D03*
X146479000Y-50690500D03*
%TO.C,U13*%
X146840000Y-156390000D03*
X146840000Y-158930000D03*
X146840000Y-161470000D03*
X146840000Y-164010000D03*
%TO.C,U1*%
X182585000Y-43040000D03*
X182585000Y-45580000D03*
X182585000Y-48120000D03*
X182585000Y-50660000D03*
D15*
%TO.C,U3*%
X127750000Y-66880000D03*
X127750000Y-69420000D03*
X127750000Y-71960000D03*
X127750000Y-74500000D03*
X127750000Y-77040000D03*
X127750000Y-79580000D03*
X127750000Y-82120000D03*
X127750000Y-84660000D03*
X127750000Y-87200000D03*
X127750000Y-89740000D03*
X127750000Y-92280000D03*
X127750000Y-94820000D03*
X127750000Y-97360000D03*
X127750000Y-99900000D03*
X127750000Y-102440000D03*
X127750000Y-104980000D03*
X127750000Y-107520000D03*
X127750000Y-110060000D03*
X127750000Y-112600000D03*
X127750000Y-115140000D03*
X134100000Y-114910000D03*
X136640000Y-114910000D03*
X139180000Y-114910000D03*
X145530000Y-66880000D03*
X145530000Y-69420000D03*
X145530000Y-71960000D03*
X145530000Y-74500000D03*
X145530000Y-77040000D03*
X145530000Y-79580000D03*
X145530000Y-82120000D03*
X145530000Y-84660000D03*
X145530000Y-87200000D03*
X145530000Y-89740000D03*
X145530000Y-92280000D03*
X145530000Y-94820000D03*
X145530000Y-97360000D03*
X145530000Y-99900000D03*
X145530000Y-102440000D03*
X145530000Y-104980000D03*
X145530000Y-107520000D03*
X145530000Y-110060000D03*
X145530000Y-112600000D03*
X145530000Y-115140000D03*
D16*
%TO.C,D2*%
X150091000Y-61523000D03*
%TO.C,SW1*%
X157825000Y-86800000D03*
X157825000Y-91300000D03*
%TO.C,D2*%
X160251000Y-61523000D03*
%TO.C,SW1*%
X164325000Y-86800000D03*
X164325000Y-91300000D03*
D17*
%TO.C,U7*%
X33749000Y-44275500D03*
X33779000Y-49415500D03*
%TO.C,U9*%
X64868000Y-91100000D03*
%TO.C,U11*%
X65193000Y-129225000D03*
%TO.C,U12*%
X65693000Y-166575000D03*
%TO.C,U9*%
X70008000Y-91070000D03*
%TO.C,U11*%
X70333000Y-129195000D03*
%TO.C,U12*%
X70833000Y-166545000D03*
%TO.C,U8*%
X71505000Y-44220000D03*
X71535000Y-49360000D03*
%TO.C,U5*%
X108024000Y-44225500D03*
X108054000Y-49365500D03*
%TO.C,U4*%
X111465000Y-157490000D03*
X111495000Y-162630000D03*
%TO.C,U6*%
X143499000Y-44300500D03*
X143529000Y-49440500D03*
%TO.C,U13*%
X149790000Y-157640000D03*
X149820000Y-162780000D03*
%TO.C,R1*%
X158381000Y-77393000D03*
X166001000Y-77393000D03*
%TO.C,U1*%
X179605000Y-44270000D03*
X179635000Y-49410000D03*
%TO.C,U10*%
X185754000Y-70150000D03*
X185754000Y-72690000D03*
X185754000Y-75230000D03*
X185754000Y-77770000D03*
X185754000Y-80310000D03*
X185754000Y-82850000D03*
%TO.C,U14*%
X189360000Y-100895000D03*
X189360000Y-103435000D03*
X189360000Y-105975000D03*
X189360000Y-108425000D03*
D18*
%TO.C,U2*%
X84719000Y-70495000D03*
X84769000Y-120405000D03*
%TO.C,J1*%
X103950000Y-22050000D03*
%TO.C,U2*%
X104229000Y-120445000D03*
X104239000Y-70525000D03*
%TO.C,J1*%
X108950000Y-22050000D03*
%TO.C,J15*%
X174855000Y-166360000D03*
X179855000Y-166360000D03*
%TO.C,J13*%
X187375000Y-166700000D03*
X192375000Y-166700000D03*
%TO.C,J16*%
X200355000Y-166410000D03*
X205355000Y-166410000D03*
%TO.C,J17*%
X207375000Y-130625000D03*
X207375000Y-135625000D03*
%TO.C,J12*%
X207475000Y-143755000D03*
X207475000Y-148755000D03*
%TO.C,J6*%
X207600000Y-117175000D03*
X207600000Y-122175000D03*
%TO.C,J2*%
X221400000Y-42975000D03*
X221400000Y-47975000D03*
D19*
%TO.C,J5*%
X34700000Y-121073000D03*
X34700000Y-126073000D03*
%TO.C,J20*%
X35775000Y-84250000D03*
X35775000Y-89250000D03*
%TO.C,J3*%
X65250000Y-22425000D03*
X70250000Y-22425000D03*
%TO.C,J21*%
X145250000Y-22925000D03*
X150250000Y-22925000D03*
%TO.C,J22*%
X180000000Y-22450000D03*
X185000000Y-22450000D03*
M02*
