%TF.GenerationSoftware,KiCad,Pcbnew,7.0.11+dfsg-1build4*%
%TF.CreationDate,2025-03-10T12:51:52+05:30*%
%TF.ProjectId,incubator,696e6375-6261-4746-9f72-2e6b69636164,rev?*%
%TF.SameCoordinates,Original*%
%TF.FileFunction,OtherDrawing,Comment*%
%FSLAX46Y46*%
G04 Gerber Fmt 4.6, Leading zero omitted, Abs format (unit mm)*
G04 Created by KiCad (PCBNEW 7.0.11+dfsg-1build4) date 2025-03-10 12:51:52*
%MOMM*%
%LPD*%
G01*
G04 APERTURE LIST*
%ADD10C,0.150000*%
%ADD11C,0.100000*%
G04 APERTURE END LIST*
D10*
X242879819Y-103911309D02*
X242879819Y-104482737D01*
X242879819Y-104197023D02*
X241879819Y-104197023D01*
X241879819Y-104197023D02*
X242022676Y-104292261D01*
X242022676Y-104292261D02*
X242117914Y-104387499D01*
X242117914Y-104387499D02*
X242165533Y-104482737D01*
X241879819Y-103577975D02*
X241879819Y-102911309D01*
X241879819Y-102911309D02*
X242879819Y-103339880D01*
X242879819Y-102006547D02*
X242879819Y-102577975D01*
X242879819Y-102292261D02*
X241879819Y-102292261D01*
X241879819Y-102292261D02*
X242022676Y-102387499D01*
X242022676Y-102387499D02*
X242117914Y-102482737D01*
X242117914Y-102482737D02*
X242165533Y-102577975D01*
X242784580Y-101577975D02*
X242832200Y-101530356D01*
X242832200Y-101530356D02*
X242879819Y-101577975D01*
X242879819Y-101577975D02*
X242832200Y-101625594D01*
X242832200Y-101625594D02*
X242784580Y-101577975D01*
X242784580Y-101577975D02*
X242879819Y-101577975D01*
X242879819Y-101054166D02*
X242879819Y-100863690D01*
X242879819Y-100863690D02*
X242832200Y-100768452D01*
X242832200Y-100768452D02*
X242784580Y-100720833D01*
X242784580Y-100720833D02*
X242641723Y-100625595D01*
X242641723Y-100625595D02*
X242451247Y-100577976D01*
X242451247Y-100577976D02*
X242070295Y-100577976D01*
X242070295Y-100577976D02*
X241975057Y-100625595D01*
X241975057Y-100625595D02*
X241927438Y-100673214D01*
X241927438Y-100673214D02*
X241879819Y-100768452D01*
X241879819Y-100768452D02*
X241879819Y-100958928D01*
X241879819Y-100958928D02*
X241927438Y-101054166D01*
X241927438Y-101054166D02*
X241975057Y-101101785D01*
X241975057Y-101101785D02*
X242070295Y-101149404D01*
X242070295Y-101149404D02*
X242308390Y-101149404D01*
X242308390Y-101149404D02*
X242403628Y-101101785D01*
X242403628Y-101101785D02*
X242451247Y-101054166D01*
X242451247Y-101054166D02*
X242498866Y-100958928D01*
X242498866Y-100958928D02*
X242498866Y-100768452D01*
X242498866Y-100768452D02*
X242451247Y-100673214D01*
X242451247Y-100673214D02*
X242403628Y-100625595D01*
X242403628Y-100625595D02*
X242308390Y-100577976D01*
X241879819Y-100244642D02*
X241879819Y-99577976D01*
X241879819Y-99577976D02*
X242879819Y-100006547D01*
X241879819Y-98720833D02*
X241879819Y-99197023D01*
X241879819Y-99197023D02*
X242356009Y-99244642D01*
X242356009Y-99244642D02*
X242308390Y-99197023D01*
X242308390Y-99197023D02*
X242260771Y-99101785D01*
X242260771Y-99101785D02*
X242260771Y-98863690D01*
X242260771Y-98863690D02*
X242308390Y-98768452D01*
X242308390Y-98768452D02*
X242356009Y-98720833D01*
X242356009Y-98720833D02*
X242451247Y-98673214D01*
X242451247Y-98673214D02*
X242689342Y-98673214D01*
X242689342Y-98673214D02*
X242784580Y-98720833D01*
X242784580Y-98720833D02*
X242832200Y-98768452D01*
X242832200Y-98768452D02*
X242879819Y-98863690D01*
X242879819Y-98863690D02*
X242879819Y-99101785D01*
X242879819Y-99101785D02*
X242832200Y-99197023D01*
X242832200Y-99197023D02*
X242784580Y-99244642D01*
X241879819Y-98054166D02*
X241879819Y-97958928D01*
X241879819Y-97958928D02*
X241927438Y-97863690D01*
X241927438Y-97863690D02*
X241975057Y-97816071D01*
X241975057Y-97816071D02*
X242070295Y-97768452D01*
X242070295Y-97768452D02*
X242260771Y-97720833D01*
X242260771Y-97720833D02*
X242498866Y-97720833D01*
X242498866Y-97720833D02*
X242689342Y-97768452D01*
X242689342Y-97768452D02*
X242784580Y-97816071D01*
X242784580Y-97816071D02*
X242832200Y-97863690D01*
X242832200Y-97863690D02*
X242879819Y-97958928D01*
X242879819Y-97958928D02*
X242879819Y-98054166D01*
X242879819Y-98054166D02*
X242832200Y-98149404D01*
X242832200Y-98149404D02*
X242784580Y-98197023D01*
X242784580Y-98197023D02*
X242689342Y-98244642D01*
X242689342Y-98244642D02*
X242498866Y-98292261D01*
X242498866Y-98292261D02*
X242260771Y-98292261D01*
X242260771Y-98292261D02*
X242070295Y-98244642D01*
X242070295Y-98244642D02*
X241975057Y-98197023D01*
X241975057Y-98197023D02*
X241927438Y-98149404D01*
X241927438Y-98149404D02*
X241879819Y-98054166D01*
X242879819Y-96530356D02*
X242213152Y-96530356D01*
X242308390Y-96530356D02*
X242260771Y-96482737D01*
X242260771Y-96482737D02*
X242213152Y-96387499D01*
X242213152Y-96387499D02*
X242213152Y-96244642D01*
X242213152Y-96244642D02*
X242260771Y-96149404D01*
X242260771Y-96149404D02*
X242356009Y-96101785D01*
X242356009Y-96101785D02*
X242879819Y-96101785D01*
X242356009Y-96101785D02*
X242260771Y-96054166D01*
X242260771Y-96054166D02*
X242213152Y-95958928D01*
X242213152Y-95958928D02*
X242213152Y-95816071D01*
X242213152Y-95816071D02*
X242260771Y-95720832D01*
X242260771Y-95720832D02*
X242356009Y-95673213D01*
X242356009Y-95673213D02*
X242879819Y-95673213D01*
X242879819Y-95197023D02*
X242213152Y-95197023D01*
X242308390Y-95197023D02*
X242260771Y-95149404D01*
X242260771Y-95149404D02*
X242213152Y-95054166D01*
X242213152Y-95054166D02*
X242213152Y-94911309D01*
X242213152Y-94911309D02*
X242260771Y-94816071D01*
X242260771Y-94816071D02*
X242356009Y-94768452D01*
X242356009Y-94768452D02*
X242879819Y-94768452D01*
X242356009Y-94768452D02*
X242260771Y-94720833D01*
X242260771Y-94720833D02*
X242213152Y-94625595D01*
X242213152Y-94625595D02*
X242213152Y-94482738D01*
X242213152Y-94482738D02*
X242260771Y-94387499D01*
X242260771Y-94387499D02*
X242356009Y-94339880D01*
X242356009Y-94339880D02*
X242879819Y-94339880D01*
D11*
X227725000Y-13400000D02*
X244161420Y-13400000D01*
X227725000Y-185375000D02*
X244161420Y-185375000D01*
X243575000Y-13400000D02*
X243575000Y-185375000D01*
X243575000Y-13400000D02*
X243575000Y-185375000D01*
X243575000Y-13400000D02*
X244161421Y-14526504D01*
X243575000Y-13400000D02*
X242988579Y-14526504D01*
X243575000Y-185375000D02*
X242988579Y-184248496D01*
X243575000Y-185375000D02*
X244161421Y-184248496D01*
D10*
X123076190Y-190129819D02*
X122504762Y-190129819D01*
X122790476Y-190129819D02*
X122790476Y-189129819D01*
X122790476Y-189129819D02*
X122695238Y-189272676D01*
X122695238Y-189272676D02*
X122600000Y-189367914D01*
X122600000Y-189367914D02*
X122504762Y-189415533D01*
X123552381Y-190129819D02*
X123742857Y-190129819D01*
X123742857Y-190129819D02*
X123838095Y-190082200D01*
X123838095Y-190082200D02*
X123885714Y-190034580D01*
X123885714Y-190034580D02*
X123980952Y-189891723D01*
X123980952Y-189891723D02*
X124028571Y-189701247D01*
X124028571Y-189701247D02*
X124028571Y-189320295D01*
X124028571Y-189320295D02*
X123980952Y-189225057D01*
X123980952Y-189225057D02*
X123933333Y-189177438D01*
X123933333Y-189177438D02*
X123838095Y-189129819D01*
X123838095Y-189129819D02*
X123647619Y-189129819D01*
X123647619Y-189129819D02*
X123552381Y-189177438D01*
X123552381Y-189177438D02*
X123504762Y-189225057D01*
X123504762Y-189225057D02*
X123457143Y-189320295D01*
X123457143Y-189320295D02*
X123457143Y-189558390D01*
X123457143Y-189558390D02*
X123504762Y-189653628D01*
X123504762Y-189653628D02*
X123552381Y-189701247D01*
X123552381Y-189701247D02*
X123647619Y-189748866D01*
X123647619Y-189748866D02*
X123838095Y-189748866D01*
X123838095Y-189748866D02*
X123933333Y-189701247D01*
X123933333Y-189701247D02*
X123980952Y-189653628D01*
X123980952Y-189653628D02*
X124028571Y-189558390D01*
X124504762Y-190129819D02*
X124695238Y-190129819D01*
X124695238Y-190129819D02*
X124790476Y-190082200D01*
X124790476Y-190082200D02*
X124838095Y-190034580D01*
X124838095Y-190034580D02*
X124933333Y-189891723D01*
X124933333Y-189891723D02*
X124980952Y-189701247D01*
X124980952Y-189701247D02*
X124980952Y-189320295D01*
X124980952Y-189320295D02*
X124933333Y-189225057D01*
X124933333Y-189225057D02*
X124885714Y-189177438D01*
X124885714Y-189177438D02*
X124790476Y-189129819D01*
X124790476Y-189129819D02*
X124600000Y-189129819D01*
X124600000Y-189129819D02*
X124504762Y-189177438D01*
X124504762Y-189177438D02*
X124457143Y-189225057D01*
X124457143Y-189225057D02*
X124409524Y-189320295D01*
X124409524Y-189320295D02*
X124409524Y-189558390D01*
X124409524Y-189558390D02*
X124457143Y-189653628D01*
X124457143Y-189653628D02*
X124504762Y-189701247D01*
X124504762Y-189701247D02*
X124600000Y-189748866D01*
X124600000Y-189748866D02*
X124790476Y-189748866D01*
X124790476Y-189748866D02*
X124885714Y-189701247D01*
X124885714Y-189701247D02*
X124933333Y-189653628D01*
X124933333Y-189653628D02*
X124980952Y-189558390D01*
X125409524Y-190034580D02*
X125457143Y-190082200D01*
X125457143Y-190082200D02*
X125409524Y-190129819D01*
X125409524Y-190129819D02*
X125361905Y-190082200D01*
X125361905Y-190082200D02*
X125409524Y-190034580D01*
X125409524Y-190034580D02*
X125409524Y-190129819D01*
X125838095Y-189225057D02*
X125885714Y-189177438D01*
X125885714Y-189177438D02*
X125980952Y-189129819D01*
X125980952Y-189129819D02*
X126219047Y-189129819D01*
X126219047Y-189129819D02*
X126314285Y-189177438D01*
X126314285Y-189177438D02*
X126361904Y-189225057D01*
X126361904Y-189225057D02*
X126409523Y-189320295D01*
X126409523Y-189320295D02*
X126409523Y-189415533D01*
X126409523Y-189415533D02*
X126361904Y-189558390D01*
X126361904Y-189558390D02*
X125790476Y-190129819D01*
X125790476Y-190129819D02*
X126409523Y-190129819D01*
X127028571Y-189129819D02*
X127123809Y-189129819D01*
X127123809Y-189129819D02*
X127219047Y-189177438D01*
X127219047Y-189177438D02*
X127266666Y-189225057D01*
X127266666Y-189225057D02*
X127314285Y-189320295D01*
X127314285Y-189320295D02*
X127361904Y-189510771D01*
X127361904Y-189510771D02*
X127361904Y-189748866D01*
X127361904Y-189748866D02*
X127314285Y-189939342D01*
X127314285Y-189939342D02*
X127266666Y-190034580D01*
X127266666Y-190034580D02*
X127219047Y-190082200D01*
X127219047Y-190082200D02*
X127123809Y-190129819D01*
X127123809Y-190129819D02*
X127028571Y-190129819D01*
X127028571Y-190129819D02*
X126933333Y-190082200D01*
X126933333Y-190082200D02*
X126885714Y-190034580D01*
X126885714Y-190034580D02*
X126838095Y-189939342D01*
X126838095Y-189939342D02*
X126790476Y-189748866D01*
X126790476Y-189748866D02*
X126790476Y-189510771D01*
X126790476Y-189510771D02*
X126838095Y-189320295D01*
X126838095Y-189320295D02*
X126885714Y-189225057D01*
X126885714Y-189225057D02*
X126933333Y-189177438D01*
X126933333Y-189177438D02*
X127028571Y-189129819D01*
X127980952Y-189129819D02*
X128076190Y-189129819D01*
X128076190Y-189129819D02*
X128171428Y-189177438D01*
X128171428Y-189177438D02*
X128219047Y-189225057D01*
X128219047Y-189225057D02*
X128266666Y-189320295D01*
X128266666Y-189320295D02*
X128314285Y-189510771D01*
X128314285Y-189510771D02*
X128314285Y-189748866D01*
X128314285Y-189748866D02*
X128266666Y-189939342D01*
X128266666Y-189939342D02*
X128219047Y-190034580D01*
X128219047Y-190034580D02*
X128171428Y-190082200D01*
X128171428Y-190082200D02*
X128076190Y-190129819D01*
X128076190Y-190129819D02*
X127980952Y-190129819D01*
X127980952Y-190129819D02*
X127885714Y-190082200D01*
X127885714Y-190082200D02*
X127838095Y-190034580D01*
X127838095Y-190034580D02*
X127790476Y-189939342D01*
X127790476Y-189939342D02*
X127742857Y-189748866D01*
X127742857Y-189748866D02*
X127742857Y-189510771D01*
X127742857Y-189510771D02*
X127790476Y-189320295D01*
X127790476Y-189320295D02*
X127838095Y-189225057D01*
X127838095Y-189225057D02*
X127885714Y-189177438D01*
X127885714Y-189177438D02*
X127980952Y-189129819D01*
X128933333Y-189129819D02*
X129028571Y-189129819D01*
X129028571Y-189129819D02*
X129123809Y-189177438D01*
X129123809Y-189177438D02*
X129171428Y-189225057D01*
X129171428Y-189225057D02*
X129219047Y-189320295D01*
X129219047Y-189320295D02*
X129266666Y-189510771D01*
X129266666Y-189510771D02*
X129266666Y-189748866D01*
X129266666Y-189748866D02*
X129219047Y-189939342D01*
X129219047Y-189939342D02*
X129171428Y-190034580D01*
X129171428Y-190034580D02*
X129123809Y-190082200D01*
X129123809Y-190082200D02*
X129028571Y-190129819D01*
X129028571Y-190129819D02*
X128933333Y-190129819D01*
X128933333Y-190129819D02*
X128838095Y-190082200D01*
X128838095Y-190082200D02*
X128790476Y-190034580D01*
X128790476Y-190034580D02*
X128742857Y-189939342D01*
X128742857Y-189939342D02*
X128695238Y-189748866D01*
X128695238Y-189748866D02*
X128695238Y-189510771D01*
X128695238Y-189510771D02*
X128742857Y-189320295D01*
X128742857Y-189320295D02*
X128790476Y-189225057D01*
X128790476Y-189225057D02*
X128838095Y-189177438D01*
X128838095Y-189177438D02*
X128933333Y-189129819D01*
X130457143Y-190129819D02*
X130457143Y-189463152D01*
X130457143Y-189558390D02*
X130504762Y-189510771D01*
X130504762Y-189510771D02*
X130600000Y-189463152D01*
X130600000Y-189463152D02*
X130742857Y-189463152D01*
X130742857Y-189463152D02*
X130838095Y-189510771D01*
X130838095Y-189510771D02*
X130885714Y-189606009D01*
X130885714Y-189606009D02*
X130885714Y-190129819D01*
X130885714Y-189606009D02*
X130933333Y-189510771D01*
X130933333Y-189510771D02*
X131028571Y-189463152D01*
X131028571Y-189463152D02*
X131171428Y-189463152D01*
X131171428Y-189463152D02*
X131266667Y-189510771D01*
X131266667Y-189510771D02*
X131314286Y-189606009D01*
X131314286Y-189606009D02*
X131314286Y-190129819D01*
X131790476Y-190129819D02*
X131790476Y-189463152D01*
X131790476Y-189558390D02*
X131838095Y-189510771D01*
X131838095Y-189510771D02*
X131933333Y-189463152D01*
X131933333Y-189463152D02*
X132076190Y-189463152D01*
X132076190Y-189463152D02*
X132171428Y-189510771D01*
X132171428Y-189510771D02*
X132219047Y-189606009D01*
X132219047Y-189606009D02*
X132219047Y-190129819D01*
X132219047Y-189606009D02*
X132266666Y-189510771D01*
X132266666Y-189510771D02*
X132361904Y-189463152D01*
X132361904Y-189463152D02*
X132504761Y-189463152D01*
X132504761Y-189463152D02*
X132600000Y-189510771D01*
X132600000Y-189510771D02*
X132647619Y-189606009D01*
X132647619Y-189606009D02*
X132647619Y-190129819D01*
D11*
X28000000Y-185625000D02*
X28000000Y-191411420D01*
X227200000Y-185625000D02*
X227200000Y-191411420D01*
X28000000Y-190825000D02*
X227200000Y-190825000D01*
X28000000Y-190825000D02*
X227200000Y-190825000D01*
X28000000Y-190825000D02*
X29126504Y-190238579D01*
X28000000Y-190825000D02*
X29126504Y-191411421D01*
X227200000Y-190825000D02*
X226073496Y-191411421D01*
X227200000Y-190825000D02*
X226073496Y-190238579D01*
%TO.C,U3*%
X135140000Y-74510000D02*
X133140000Y-74510000D01*
X133140000Y-72510000D01*
X135140000Y-72510000D01*
X135140000Y-74510000D01*
G36*
X135140000Y-74510000D02*
G01*
X133140000Y-74510000D01*
X133140000Y-72510000D01*
X135140000Y-72510000D01*
X135140000Y-74510000D01*
G37*
X135140000Y-77010000D02*
X133140000Y-77010000D01*
X133140000Y-75010000D01*
X135140000Y-75010000D01*
X135140000Y-77010000D01*
G36*
X135140000Y-77010000D02*
G01*
X133140000Y-77010000D01*
X133140000Y-75010000D01*
X135140000Y-75010000D01*
X135140000Y-77010000D01*
G37*
X135140000Y-79510000D02*
X133140000Y-79510000D01*
X133140000Y-77510000D01*
X135140000Y-77510000D01*
X135140000Y-79510000D01*
G36*
X135140000Y-79510000D02*
G01*
X133140000Y-79510000D01*
X133140000Y-77510000D01*
X135140000Y-77510000D01*
X135140000Y-79510000D01*
G37*
X140340000Y-70810000D02*
X132940000Y-70810000D01*
X132940000Y-66110000D01*
X140340000Y-66110000D01*
X140340000Y-70810000D01*
G36*
X140340000Y-70810000D02*
G01*
X132940000Y-70810000D01*
X132940000Y-66110000D01*
X140340000Y-66110000D01*
X140340000Y-70810000D01*
G37*
%TD*%
M02*
