%TF.GenerationSoftware,KiCad,Pcbnew,7.0.11+dfsg-1build4*%
%TF.CreationDate,2025-03-10T12:51:52+05:30*%
%TF.ProjectId,incubator,696e6375-6261-4746-9f72-2e6b69636164,rev?*%
%TF.SameCoordinates,Original*%
%TF.FileFunction,Soldermask,Top*%
%TF.FilePolarity,Negative*%
%FSLAX46Y46*%
G04 Gerber Fmt 4.6, Leading zero omitted, Abs format (unit mm)*
G04 Created by KiCad (PCBNEW 7.0.11+dfsg-1build4) date 2025-03-10 12:51:52*
%MOMM*%
%LPD*%
G01*
G04 APERTURE LIST*
%ADD10C,2.000000*%
%ADD11C,1.500000*%
%ADD12R,3.000000X3.000000*%
%ADD13C,3.000000*%
%ADD14C,3.200000*%
%ADD15O,1.800000X1.800000*%
%ADD16O,1.500000X1.500000*%
%ADD17O,1.700000X1.700000*%
%ADD18R,3.500000X1.700000*%
%ADD19R,1.700000X1.700000*%
%ADD20R,1.700000X3.500000*%
%ADD21R,2.200000X2.200000*%
%ADD22O,2.200000X2.200000*%
%ADD23R,1.800000X1.800000*%
%ADD24C,1.800000*%
%ADD25C,2.400000*%
%ADD26O,2.400000X2.400000*%
%ADD27R,1.600000X1.600000*%
%ADD28C,1.600000*%
%ADD29R,3.140000X3.140000*%
%ADD30C,2.200000*%
G04 APERTURE END LIST*
D10*
%TO.C,SW1*%
X157825000Y-86800000D03*
X164325000Y-86800000D03*
X157825000Y-91300000D03*
X164325000Y-91300000D03*
%TD*%
D11*
%TO.C,TP13*%
X135700000Y-23150000D03*
%TD*%
D12*
%TO.C,J15*%
X174855000Y-166360000D03*
D13*
X179855000Y-166360000D03*
%TD*%
D11*
%TO.C,TP14*%
X150975000Y-28800000D03*
%TD*%
D12*
%TO.C,J22*%
X180000000Y-22450000D03*
D13*
X185000000Y-22450000D03*
%TD*%
D11*
%TO.C,TP7*%
X136850000Y-41775000D03*
%TD*%
D14*
%TO.C,H2*%
X35775000Y-21775000D03*
%TD*%
D11*
%TO.C,*%
X115130000Y-127550000D03*
%TD*%
D15*
%TO.C,U3*%
X133915000Y-67010000D03*
D16*
X134215000Y-70040000D03*
X139065000Y-70040000D03*
D15*
X139365000Y-67010000D03*
D17*
X127750000Y-66880000D03*
D18*
X126850000Y-66880000D03*
D17*
X127750000Y-69420000D03*
D18*
X126850000Y-69420000D03*
D19*
X127750000Y-71960000D03*
D18*
X126850000Y-71960000D03*
D17*
X127750000Y-74500000D03*
D18*
X126850000Y-74500000D03*
D17*
X127750000Y-77040000D03*
D18*
X126850000Y-77040000D03*
D17*
X127750000Y-79580000D03*
D18*
X126850000Y-79580000D03*
D17*
X127750000Y-82120000D03*
D18*
X126850000Y-82120000D03*
D19*
X127750000Y-84660000D03*
D18*
X126850000Y-84660000D03*
D17*
X127750000Y-87200000D03*
D18*
X126850000Y-87200000D03*
D17*
X127750000Y-89740000D03*
D18*
X126850000Y-89740000D03*
D17*
X127750000Y-92280000D03*
D18*
X126850000Y-92280000D03*
D17*
X127750000Y-94820000D03*
D18*
X126850000Y-94820000D03*
D19*
X127750000Y-97360000D03*
D18*
X126850000Y-97360000D03*
D17*
X127750000Y-99900000D03*
D18*
X126850000Y-99900000D03*
D17*
X127750000Y-102440000D03*
D18*
X126850000Y-102440000D03*
D17*
X127750000Y-104980000D03*
D18*
X126850000Y-104980000D03*
D17*
X127750000Y-107520000D03*
D18*
X126850000Y-107520000D03*
D19*
X127750000Y-110060000D03*
D18*
X126850000Y-110060000D03*
D17*
X127750000Y-112600000D03*
D18*
X126850000Y-112600000D03*
D17*
X127750000Y-115140000D03*
D18*
X126850000Y-115140000D03*
D17*
X145530000Y-115140000D03*
D18*
X146430000Y-115140000D03*
D17*
X145530000Y-112600000D03*
D18*
X146430000Y-112600000D03*
D19*
X145530000Y-110060000D03*
D18*
X146430000Y-110060000D03*
D17*
X145530000Y-107520000D03*
D18*
X146430000Y-107520000D03*
D17*
X145530000Y-104980000D03*
D18*
X146430000Y-104980000D03*
D17*
X145530000Y-102440000D03*
D18*
X146430000Y-102440000D03*
D17*
X145530000Y-99900000D03*
D18*
X146430000Y-99900000D03*
D19*
X145530000Y-97360000D03*
D18*
X146430000Y-97360000D03*
D17*
X145530000Y-94820000D03*
D18*
X146430000Y-94820000D03*
D17*
X145530000Y-92280000D03*
D18*
X146430000Y-92280000D03*
D17*
X145530000Y-89740000D03*
D18*
X146430000Y-89740000D03*
D17*
X145530000Y-87200000D03*
D18*
X146430000Y-87200000D03*
D19*
X145530000Y-84660000D03*
D18*
X146430000Y-84660000D03*
D17*
X145530000Y-82120000D03*
D18*
X146430000Y-82120000D03*
D17*
X145530000Y-79580000D03*
D18*
X146430000Y-79580000D03*
D17*
X145530000Y-77040000D03*
D18*
X146430000Y-77040000D03*
D17*
X145530000Y-74500000D03*
D18*
X146430000Y-74500000D03*
D19*
X145530000Y-71960000D03*
D18*
X146430000Y-71960000D03*
D17*
X145530000Y-69420000D03*
D18*
X146430000Y-69420000D03*
D17*
X145530000Y-66880000D03*
D18*
X146430000Y-66880000D03*
D17*
X134100000Y-114910000D03*
D20*
X134100000Y-115810000D03*
D19*
X136640000Y-114910000D03*
D20*
X136640000Y-115810000D03*
D17*
X139180000Y-114910000D03*
D20*
X139180000Y-115810000D03*
%TD*%
D21*
%TO.C,D2*%
X150091000Y-61523000D03*
D22*
X160251000Y-61523000D03*
%TD*%
D23*
%TO.C,D1*%
X169125000Y-75725000D03*
D24*
X171665000Y-75725000D03*
%TD*%
D25*
%TO.C,R1*%
X158381000Y-77393000D03*
D26*
X166001000Y-77393000D03*
%TD*%
D11*
%TO.C,TP5*%
X47800000Y-84025000D03*
%TD*%
%TO.C,scl*%
X120234000Y-127360000D03*
%TD*%
D14*
%TO.C,H1*%
X219225000Y-21275000D03*
%TD*%
D11*
%TO.C,TP11*%
X163525000Y-173900000D03*
%TD*%
D24*
%TO.C,U10*%
X185754000Y-70150000D03*
X185754000Y-72690000D03*
X185754000Y-75230000D03*
X185754000Y-77770000D03*
X185754000Y-80310000D03*
X185754000Y-82850000D03*
%TD*%
D27*
%TO.C,C3*%
X157300000Y-68300000D03*
D28*
X159800000Y-68300000D03*
%TD*%
D12*
%TO.C,J17*%
X207375000Y-135625000D03*
D13*
X207375000Y-130625000D03*
%TD*%
D29*
%TO.C,U2*%
X104239000Y-70525000D03*
X84719000Y-70495000D03*
X104229000Y-120445000D03*
X84769000Y-120405000D03*
%TD*%
D12*
%TO.C,J20*%
X35775000Y-84250000D03*
D13*
X35775000Y-89250000D03*
%TD*%
D11*
%TO.C,U13*%
X146840000Y-164010000D03*
D30*
X149820000Y-162780000D03*
D11*
X146840000Y-161470000D03*
X146840000Y-158930000D03*
D30*
X149790000Y-157640000D03*
D11*
X146840000Y-156390000D03*
%TD*%
%TO.C,U7*%
X36729000Y-43045500D03*
D30*
X33749000Y-44275500D03*
D11*
X36729000Y-45585500D03*
X36729000Y-48125500D03*
D30*
X33779000Y-49415500D03*
D11*
X36729000Y-50665500D03*
%TD*%
%TO.C,*%
X202100000Y-121325000D03*
%TD*%
%TO.C,U5*%
X111004000Y-42995500D03*
D30*
X108024000Y-44225500D03*
D11*
X111004000Y-45535500D03*
X111004000Y-48075500D03*
D30*
X108054000Y-49365500D03*
D11*
X111004000Y-50615500D03*
%TD*%
D12*
%TO.C,J2*%
X221400000Y-47975000D03*
D13*
X221400000Y-42975000D03*
%TD*%
D11*
%TO.C,U6*%
X146479000Y-43070500D03*
D30*
X143499000Y-44300500D03*
D11*
X146479000Y-45610500D03*
X146479000Y-48150500D03*
D30*
X143529000Y-49440500D03*
D11*
X146479000Y-50690500D03*
%TD*%
D12*
%TO.C,J13*%
X187375000Y-166700000D03*
D13*
X192375000Y-166700000D03*
%TD*%
D11*
%TO.C,U8*%
X74485000Y-42990000D03*
D30*
X71505000Y-44220000D03*
D11*
X74485000Y-45530000D03*
X74485000Y-48070000D03*
D30*
X71535000Y-49360000D03*
D11*
X74485000Y-50610000D03*
%TD*%
%TO.C,U12*%
X64463000Y-163595000D03*
D30*
X65693000Y-166575000D03*
D11*
X67003000Y-163595000D03*
X69543000Y-163595000D03*
D30*
X70833000Y-166545000D03*
D11*
X72083000Y-163595000D03*
%TD*%
%TO.C,TP6*%
X152875000Y-94900000D03*
%TD*%
D12*
%TO.C,J21*%
X145250000Y-22925000D03*
D13*
X150250000Y-22925000D03*
%TD*%
D11*
%TO.C,U9*%
X63638000Y-88120000D03*
D30*
X64868000Y-91100000D03*
D11*
X66178000Y-88120000D03*
X68718000Y-88120000D03*
D30*
X70008000Y-91070000D03*
D11*
X71258000Y-88120000D03*
%TD*%
D12*
%TO.C,J12*%
X207475000Y-148755000D03*
D13*
X207475000Y-143755000D03*
%TD*%
D11*
%TO.C,TP3*%
X169501000Y-82873000D03*
%TD*%
D12*
%TO.C,J16*%
X200355000Y-166410000D03*
D13*
X205355000Y-166410000D03*
%TD*%
D11*
%TO.C,TP9*%
X101750000Y-130975000D03*
%TD*%
D12*
%TO.C,J6*%
X207600000Y-122175000D03*
D13*
X207600000Y-117175000D03*
%TD*%
D11*
%TO.C,TP10*%
X200700000Y-155825000D03*
%TD*%
D12*
%TO.C,J1*%
X103950000Y-22050000D03*
D13*
X108950000Y-22050000D03*
%TD*%
D24*
%TO.C,U14*%
X189360000Y-100895000D03*
X189360000Y-103435000D03*
X189360000Y-105975000D03*
X189360000Y-108425000D03*
%TD*%
D11*
%TO.C,U11*%
X63963000Y-126245000D03*
D30*
X65193000Y-129225000D03*
D11*
X66503000Y-126245000D03*
X69043000Y-126245000D03*
D30*
X70333000Y-129195000D03*
D11*
X71583000Y-126245000D03*
%TD*%
%TO.C,TP8*%
X47200000Y-119250000D03*
%TD*%
D12*
%TO.C,J5*%
X34700000Y-126073000D03*
D13*
X34700000Y-121073000D03*
%TD*%
D11*
%TO.C,U4*%
X108515000Y-163860000D03*
D30*
X111495000Y-162630000D03*
D11*
X108515000Y-161320000D03*
X108515000Y-158780000D03*
D30*
X111465000Y-157490000D03*
D11*
X108515000Y-156240000D03*
%TD*%
D14*
%TO.C,H4*%
X36175000Y-177500000D03*
%TD*%
D11*
%TO.C,TP4*%
X145350000Y-28925000D03*
%TD*%
D27*
%TO.C,C1*%
X164825888Y-68023000D03*
D28*
X167325888Y-68023000D03*
%TD*%
D11*
%TO.C,U1*%
X182585000Y-43040000D03*
D30*
X179605000Y-44270000D03*
D11*
X182585000Y-45580000D03*
X182585000Y-48120000D03*
D30*
X179635000Y-49410000D03*
D11*
X182585000Y-50660000D03*
%TD*%
D12*
%TO.C,J3*%
X65250000Y-22425000D03*
D13*
X70250000Y-22425000D03*
%TD*%
D14*
%TO.C,H3*%
X219100000Y-177400000D03*
%TD*%
M02*
